<svg id="Layer_1" data-name="Layer 1" xmlns="http://www.w3.org/2000/svg" viewBox="0 0 300 300"><title>cc</title><path d="M151.15,16.78C77.69,16.78,17.92,76.55,17.92,150S77.69,283.23,151.15,283.23,284.37,223.46,284.37,150,224.6,16.78,151.15,16.78Zm0,231.45A98.23,98.23,0,1,1,249.37,150,98.34,98.34,0,0,1,151.15,248.23Z"/><path d="M138.12,163a10.9,10.9,0,0,0-13.3,2.64c-2.61,3.08-6.08,4.57-10.62,4.57-4.84,0-8.37-1.68-10.8-5.13-2.59-3.68-3.9-8.75-3.9-15.07,0-8.67,1.52-20.2,14.7-20.2a12.87,12.87,0,0,1,6.21,2,11.18,11.18,0,0,1,2.65,2.16,11,11,0,0,0,13.24,2.41l1.57-.81a11.09,11.09,0,0,0,5.84-8.29,10.69,10.69,0,0,0-3.29-9.39c-7.2-6.79-16.94-10.24-28.94-10.24h0c-11.5,0-21.16,3.88-28.73,11.52s-11.38,18-11.38,30.88c0,13.17,3.79,23.64,11.28,31.12s17.41,11.28,29.52,11.28a40.1,40.1,0,0,0,21-5.74,41,41,0,0,0,7.81-6.11A11,11,0,0,0,138.12,163Z"/><path d="M224.14,171.08a11,11,0,0,0-19.23-5.47c-2.61,3.1-6.08,4.6-10.64,4.6-4.84,0-8.37-1.68-10.8-5.13-2.59-3.69-3.9-8.76-3.9-15.07,0-8.67,1.52-20.2,14.7-20.2a13.18,13.18,0,0,1,6.44,2,11,11,0,0,1,2.63,2.14,11.06,11.06,0,0,0,13.29,2.37l1.48-.78a11.06,11.06,0,0,0,5.78-8.24,10.71,10.71,0,0,0-3.23-9.36c-7.13-6.83-16.85-10.29-28.88-10.29h0c-11.5,0-21.16,3.88-28.72,11.52s-11.39,18-11.39,30.88c0,13.17,3.76,23.63,11.16,31.11s17.37,11.29,29.64,11.29a39.63,39.63,0,0,0,20.78-5.75A41.42,41.42,0,0,0,221,180.6,10.84,10.84,0,0,0,224.14,171.08Z"/></svg>